# xmcd
#
# Track frame offsets: 
#        150
#        17806
#        37334
#        55403
#        72838
#        94037
#        108410
#        120106
#        133991
#        149754
#        162338
#        180288
#
# Disc length: 2574 seconds
#
# Revision: 0
# Processed by: cddbd v1.5.2PL0 Copyright (c) Steve Scherf et al.
# Submitted via: ExactAudioCopy v0.99pb3
#
DISCID=ab0a0c0c
DTITLE=Georges Brassens - Bobino 1973 (2)
DYEAR=2006
DGENRE=Chanson
TTITLE0=Fernande
TTITLE1=Stances à un cambrioleur
TTITLE2=Le vieux Léon
TTITLE3=Le gorille
TTITLE4=Le blason
TTITLE5=Les sabots d'Hélène
TTITLE6=Le fossoyeur
TTITLE7=Les copains d'abord
TTITLE8=La marche nuptiale
TTITLE9=Hécatombe
TTITLE10=La non-demande en mariage
TTITLE11=La mauvaise réputation
EXTD=
EXTT0=
EXTT1=
EXTT2=
EXTT3=
EXTT4=
EXTT5=
EXTT6=
EXTT7=
EXTT8=
EXTT9=
EXTT10=
EXTT11=
PLAYORDER=
